<?xml version="1.0" encoding="UTF-8"?>
<svg width="32px" height="32px" viewBox="0 0 32 32" version="1.1" xmlns="http://www.w3.org/2000/svg" xmlns:xlink="http://www.w3.org/1999/xlink">
    <g id="页面-1" stroke="none" stroke-width="1" fill="none" fill-rule="evenodd">
        <g id="去海岛玩" fill-rule="nonzero">
            <path d="M3.488,25.1819895 C3.488,26.838804 4.33212448,28.3697638 5.70239998,29.1981711 C7.07267548,30.0265783 8.76092452,30.0265783 10.1312,29.1981711 C11.5014755,28.3697638 12.3456,26.838804 12.3456,25.1819895 C12.3456,22.6207762 10.3627587,20.5445026 7.9168,20.5445026 C5.4708413,20.5445026 3.488,22.6207762 3.488,25.1819895 Z" id="路径" fill="#FF457A"></path>
            <path d="M7.9168,20.5445026 C5.4708413,20.5445026 3.488,22.6207762 3.488,25.1819895 C3.488,27.7432028 5.4708413,29.8194764 7.9168,29.8194764 C10.3627587,29.8194764 12.3456,27.7432028 12.3456,25.1819895 C12.3456,22.6207762 10.3627587,20.5445026 7.9168,20.5445026 L7.9168,20.5445026 Z M8.1792,29.6318325 C6.05842656,29.6318325 4.3392,27.8315952 4.3392,25.6108901 C4.3392,23.3901849 6.05842656,21.5899476 8.1792,21.5899476 C10.2999734,21.5899476 12.0192,23.3901849 12.0192,25.6108901 C12.0192,27.8289807 10.3038737,29.6281356 8.1856,29.6318325 L8.1792,29.6318325 Z" id="形状" fill="#FFFFFF"></path>
            <path d="M31.4688,31.3809424 C28.3584,27.500733 22.6688,24.9005236 16.16,24.9005236 C9.6512,24.9005236 3.9616,27.500733 0.8512,31.3809424 L31.4688,31.3809424 Z" id="路径" fill="#EBEBFF"></path>
            <path d="M17.3568,25.9057592 C21.889155,25.8141894 26.3362008,27.2032031 30.08,29.8797906 C26.8032,26.8506806 21.76,24.9005236 16.16,24.9005236 C9.6512,24.9005236 3.9616,27.500733 0.8512,31.3809424 L2.9568,31.3809424 C6.1952,28.0636649 11.4368,25.9057592 17.3568,25.9057592 Z" id="路径" fill="#FFFFFF"></path>
            <path d="M16.9152,27.641466 C16.7998031,27.8297613 16.8447198,28.079625 17.0176,28.2110995 C17.3952,28.4858639 18.2208,28.8812565 19.9232,28.8812565 C21.6256,28.8812565 22.336,28.4188482 22.5984,28.1306806 C22.6926159,28.0279865 22.7531419,27.8965359 22.7712,27.7553927 C23.2835108,24.0671291 23.3737485,20.3280338 23.04,16.6173822 C22.7703299,13.7541198 21.9286511,10.9822399 20.5696,8.48167539 L18.3936,8.48167539 C19.3435557,11.1184635 19.8061671,13.9203087 19.7568,16.7380105 C19.7484508,20.5718668 18.7678229,24.3346179 16.9152,27.641466 L16.9152,27.641466 Z" id="路径" fill="#5CBDFF"></path>
            <path d="M19.3088,8.26052356 L30.1888,13.3403141 C29.9063161,12.0448521 29.4010151,10.8140444 28.6976,9.70806283 C27.4688,7.69759162 24.4288,7.19497382 24.4288,7.19497382 L31.4688,5.13089005 C29.745934,3.10914944 27.1181571,2.21328004 24.5888,2.78534031 C22.1482526,3.28751134 20.152362,5.12164279 19.36,7.59036649 C19.36,7.59036649 16.0512,4.79581152 11.36,7.30890052 C7.9168,9.15183246 8.3712,15.8534031 8.3712,15.8534031 L15.5712,9.82198953 L19.3088,8.26052356 Z" id="路径" fill="#47E289"></path>
            <path d="M18.7712,6.85989529 C18.7712,6.85989529 17.92,4.40712042 19.04,2.67141361 C20.16,0.935706806 22.7712,0.77486911 22.7712,0.77486911 L21.6512,4.17926702 L18.7712,6.85989529 Z" id="路径" fill="#F4D240"></path>
            <path d="M8.60155939,15.0157068 C8.60155939,15.0157068 9.5424,9.76167539 12.7232,7.9991623 C15.4752,6.47790576 17.1648,6.9939267 17.1648,6.9939267 C15.2712124,6.19646894 13.1217195,6.44823381 11.4432,7.66408377 C8.5568,9.69465969 8.60155939,15.0157068 8.60155939,15.0157068 L8.60155939,15.0157068 Z M22.2976,1.42492147 C21.3624031,1.68923912 20.5602693,2.320387 20.0576,3.18743455 C19.5634651,4.15564965 19.2958637,5.23285371 19.2768,6.3304712 C19.2768,6.3304712 18.7968,3.64984293 19.7568,2.51727749 C20.7168,1.38471204 21.76,1.10994764 22.2976,1.42492147 Z M21.056,5.63350785 C21.056,5.63350785 23.5776,3.5426178 26.176,3.5426178 C27.3011525,3.5564334 28.4166113,3.76242138 29.4784,4.15246073 C29.4784,4.15246073 28.6336,2.8791623 25.9776,2.97968586 C22.2272,3.12041885 21.056,5.63350785 21.056,5.63350785 L21.056,5.63350785 Z" id="形状" fill="#FFFFFF"></path>
            <path d="M18.8288,8.36774869 C18.8288,8.36774869 15.2576,8.92397906 14.4576,12.3886911 C13.6576,15.8534031 14.7776,19.7068063 14.7776,19.7068063 L18.8288,8.36774869 Z" id="路径" fill="#F4D240"></path>
            <path d="M23.4432,25.5103665 C23.7403136,22.3907042 23.7403136,19.2478298 23.4432,16.1281675 C23.239804,14.1669951 22.796713,12.2412955 22.1248,10.3983246 L30.1056,14.3455497 C30.3136112,14.4476634 30.557933,14.425199 30.7457662,14.2866891 C30.9335995,14.1481792 31.0361246,13.9148757 31.0144,13.6753927 C31.0144,13.4609424 30.432,8.42806283 26.0416,7.12125654 L31.4816,5.78094241 C31.6944225,5.72641196 31.8658143,5.56167093 31.9358782,5.34429203 C32.0059421,5.12691313 31.9649396,4.88711133 31.8272,4.7086911 C31.8272,4.66848168 28.576,0.587225131 23.648,2.43015707 C23.424,2.51057592 23.2256,2.60439791 23.008,2.6982199 L23.8336,1.04293194 C23.9286392,0.853692498 23.9317386,0.628325259 23.841943,0.436298588 C23.7521474,0.244271918 23.5802361,0.108637573 23.3792,0.0712041885 C21.4986567,-0.222137201 19.6387995,0.722344353 18.6944,2.45026178 C18.0883745,3.51944753 17.8322012,4.76654837 17.9648,6.00209424 C16.3913575,5.19006588 14.5623762,5.11696804 12.9344,5.80104712 C6.9184,8.00586387 7.3344,16.2823037 7.3536,16.6307853 C7.36839149,16.9062595 7.54290724,17.1440874 7.7933001,17.2300033 C8.04369296,17.3159191 8.31878239,17.2323616 8.4864,17.0194764 C10.1779145,14.9662864 12.084258,13.1184793 14.1696,11.5107853 C11.9616,16.1415707 14.1184,20.7656545 14.2144,20.9667016 C14.3228482,21.1920618 14.5430027,21.3345231 14.784,21.335288 L14.816,21.335288 C15.0680863,21.3211446 15.2886804,21.1531529 15.3792,20.9063874 L18.5792,12.1139267 C18.8143818,13.489207 18.9194238,14.885427 18.8928,16.2823037 C18.8492029,19.0754361 18.3200308,21.836887 17.3312,24.4314136 C16.8896,24.4314136 16.4416,24.3845026 15.9936,24.3845026 C14.9584956,24.3851949 13.9242753,24.4478451 12.896,24.5721466 C12.6903414,22.3993469 11.234912,20.5801153 9.22803831,19.9873334 C7.22116461,19.3945515 5.07236272,20.1491804 3.81264454,21.8891432 C2.55292636,23.6291061 2.43934592,25.9993517 3.5264,27.8626178 C2.27482434,28.6764184 1.14115451,29.6739341 0.16,30.824712 C-0.00579563967,31.0223263 -0.0458548065,31.3032312 0.0575748711,31.5429426 C0.161004549,31.7826539 0.388794991,31.9368401 0.64,31.9371728 L31.36,31.9371728 C31.611205,31.9368401 31.8389955,31.7826539 31.9424251,31.5429426 C32.0458548,31.3032312 32.0057956,31.0223263 31.84,30.824712 C29.5581754,28.2821194 26.6537909,26.4439307 23.4432,25.5103665 L23.4432,25.5103665 Z M13.3632,7.06764398 C14.0033002,6.82267786 14.6785301,6.69350581 15.36,6.68565445 C16.3775978,6.67623342 17.3673385,7.03352347 18.1632,7.69759162 C16.8908842,7.85543724 15.6649918,8.29398197 14.5664,8.98429319 C12.471954,10.4302775 10.6316009,12.2439917 9.1264,14.3455497 L8.6976,14.8079581 C8.9088,12.4154974 9.8048,8.37445026 13.3632,7.06764398 L13.3632,7.06764398 Z M14.816,18.7149738 C14.1727576,16.4046972 14.4018801,13.9239363 15.456,11.7855497 C16.0645002,10.6604536 16.9960689,9.76471446 18.1184,9.22554974 L18.2656,9.17193717 L14.816,18.7149738 Z M22.2464,18.7149738 C21.9008,18.7484817 21.3376,18.7954196 20.8704,18.7954196 C20.5837468,18.7962122 20.2973239,18.7783066 20.0128,18.7417801 C20.1024,17.9643979 20.16,17.1535079 20.1792,16.2957068 L20.1792,16.1013613 C20.3902108,16.2142327 20.6299713,16.2541204 20.864,16.215288 C21.2744711,16.1586301 21.6765396,16.0483109 22.0608,15.886911 C22.1911755,16.8277915 22.2532201,17.7776706 22.2464,18.728377 L22.2464,18.7149738 Z M20.8576,10.5926702 C21.4000967,12.2955736 21.8005303,14.0445348 22.0544,15.8198953 C21.684369,15.8886019 21.31004,15.9289185 20.9344,15.9405236 C20.6812684,15.9268152 20.4291106,15.8977261 20.1792,15.8534031 C20.1720081,13.8167114 19.9138769,11.7895036 19.4112,9.82198953 L19.6608,9.15183246 L20.4096,9.52041885 C20.5504,9.82198953 20.6976,10.1704712 20.8576,10.5926702 L20.8576,10.5926702 Z M19.9744,19.0701571 C20.2170366,19.2273055 20.5051071,19.2890595 20.7872,19.2443979 C21.2895982,19.1809866 21.7808813,19.0433533 22.2464,18.8356021 L22.2464,18.9897382 C22.2464,19.4365096 22.2272,19.8609424 22.1888,20.2630366 C21.8368,20.2630366 21.3632,20.3166492 21.0048,20.3166492 C20.6464,20.3166492 20.096,20.2764398 19.8016,20.2496335 C19.84,19.8743455 19.9232,19.4789529 19.9744,19.0701571 L19.9744,19.0701571 Z M29.6832,12.5830366 L21.12,8.37445026 L21.056,8.37445026 L21.8688,8.16670157 C23.0876855,7.96935848 24.3318049,8.02629655 25.5296,8.33424084 C27.5187273,8.91433413 29.0859712,10.5200261 29.6832,12.5897382 L29.6832,12.5830366 Z M24.1088,3.61633508 C24.7918334,3.35497514 25.512804,3.21894936 26.24,3.21424084 C27.5781639,3.26955585 28.8712588,3.73565777 29.9584,4.55455497 L21.5104,6.85989529 C21.1187577,6.93272191 20.7318645,7.03120505 20.352,7.1547644 L20.192,7.19497382 C20.5568,6.17633508 21.5168,4.58806283 24.1088,3.61633508 L24.1088,3.61633508 Z M19.8016,3.12041885 C20.2854437,2.18970123 21.1612151,1.55349044 22.1632,1.40481675 L20.2432,4.5947644 C19.8431538,5.03876498 19.5048911,5.53961085 19.2384,6.08251309 C19.0867395,5.0564988 19.2862164,4.00737015 19.8016,3.12041885 L19.8016,3.12041885 Z M19.7632,20.4573822 C20.1194729,20.7698587 20.5806031,20.919545 21.0432,20.8728796 C21.4349923,20.8337864 21.8166977,20.7202376 22.1696,20.537801 C21.8816,24.9139267 21.0368,27.031623 20.6272,27.8224084 C20.3235824,27.8612311 20.0178584,27.8791404 19.712,27.8760209 C18.8994098,27.9181212 18.088121,27.769284 17.3376,27.4404188 C18.530208,25.2817326 19.3512291,22.9203709 19.7632,20.4640838 L19.7632,20.4573822 Z M7.8656,21.1275393 C9.81841193,21.1287323 11.4504748,22.6839208 11.6352,24.7195812 C9.18766842,25.1327534 6.82202303,25.9660062 4.6336,27.1857592 C3.91989778,25.9673935 3.88847124,24.4408814 4.55136839,23.1914418 C5.21426553,21.9420021 6.46863913,21.1634831 7.8336,21.1543455 L7.8656,21.1275393 Z M16,25.7181152 L16.768,25.7181152 C16.5056,26.2609424 16.2816,26.6630366 16.128,26.9042932 C15.8270908,27.3956727 15.9482933,28.0479495 16.4032,28.3853403 C16.8896,28.7405236 17.856,29.1694241 19.6992,29.1895288 L19.7888,29.1895288 C21.6,29.1895288 22.4576,28.6668063 22.8608,28.2245026 C23.0444871,28.0218101 23.1630824,27.7640707 23.2,27.4873298 C23.2,27.3532984 23.2512,27.125445 23.2896,26.8171728 C25.4294065,27.4957226 27.4333029,28.5766758 29.2032,30.0071204 L2.7904,30.0071204 C6.048,27.3398953 10.88,25.7181152 16,25.7181152 Z" id="形状" fill="#37348F"></path>
        </g>
    </g>
</svg>

