<svg width="110" height="34" xmlns="http://www.w3.org/2000/svg" xmlns:xlink= "http://www.w3.org/1999/xlink" viewBox="0 0 73 33" fill="none"><path d="M11.378 6.39H0v3.25h11.374a7.05 7.05 0 017.042 7.041v11.372h3.25V16.681A10.303 10.303 0 0011.378 6.39z" fill="#F5333F" style="opacity: 1;"></path><path d="M11.378 10.722H0v3.25h6.987a2.713 2.713 0 01-2.65 2.166H0v3.243h4.336a5.965 5.965 0 005.933-5.416h1.086a7.05 7.05 0 01-7.019 6.508H0v3.244h4.336a10.308 10.308 0 009.751-7.005v2.556a11.373 11.373 0 01-9.75 5.537H0v3.248h4.336a14.57 14.57 0 009.751-3.734v3.734h3.258V16.681a5.965 5.965 0 00-5.967-5.96z" fill="#F5333F" style="opacity: 1;"></path><path d="M11.378 2.057H0v3.248h11.374a11.388 11.388 0 0111.374 11.376v11.372h3.25V16.681a14.64 14.64 0 00-14.62-14.624z" fill="#F5333F" style="opacity: 1;"></path><path d="M44.633 17.973a12.653 12.653 0 01-.754-2.611h7.46V12.65h-7.648V8.34h-2.957v4.311h-7.64v2.711h7.484a14.371 14.371 0 01-8.228 10.1l1.475 2.58a17.332 17.332 0 008.363-8.283 16.78 16.78 0 008.254 8.227l.154.072 1.475-2.577-.394-.189a13.86 13.86 0 01-7.044-7.318zM69.568 12.65h-5.667V8.34h-2.958v4.311h-6.646v2.711h6.576a12.323 12.323 0 01-7.044 9.8l-.554.253 1.473 2.577.33-.153a15.282 15.282 0 008.762-12.477h5.61l-.316 7.021c-.009.247-.017.51-.037.755-.012.354-.081.704-.206 1.036v.02c-.309.595-.892.897-1.629.897h-3.6l.486 2.71h3.567a4.313 4.313 0 004.317-4.126l.498-11.031-2.962.007z" fill="#000" style="opacity: 1;"></path></svg>