<?xml version="1.0" encoding="UTF-8"?>
<svg width="20px" height="20px" viewBox="0 0 20 20" version="1.1" xmlns="http://www.w3.org/2000/svg" xmlns:xlink="http://www.w3.org/1999/xlink">
    <title>icon-项目管理-收藏</title>
    <g id="icon-项目管理-收藏" stroke="none" stroke-width="1" fill="none" fill-rule="evenodd">
        <g id="未标星" transform="translate(0.500000, 0.500000)" stroke="#8B8FA3" stroke-width="1.5">
            <path d="M9.26732944,14.3723222 L5.70951226,16.2427773 C5.22066767,16.4997781 4.61604051,16.3118316 4.35903971,15.822987 C4.25670064,15.6283266 4.22138596,15.4053585 4.25856281,15.1886009 L4.93804542,11.2269132 C4.96586439,11.0647162 4.91209015,10.8992161 4.79424711,10.7843475 L1.91591255,7.97866472 C1.52042897,7.59316351 1.51233666,6.96005024 1.89783787,6.56456666 C2.05134648,6.40708303 2.25248889,6.30459585 2.47012592,6.27297134 L6.44788645,5.6949689 C6.61074153,5.67130467 6.75152433,5.56901999 6.82435533,5.42144825 L8.60326392,1.81698575 C8.84768622,1.32173209 9.44731205,1.11839309 9.94256571,1.36281539 C10.1397783,1.46014562 10.2994058,1.61977315 10.3967361,1.81698575 L12.1756447,5.42144825 C12.2484757,5.56901999 12.3892585,5.67130467 12.5521135,5.6949689 L16.5298741,6.27297134 C17.0764189,6.35238896 17.4551004,6.85983181 17.3756828,7.40637667 C17.3440583,7.6240137 17.2415711,7.82515611 17.0840875,7.97866472 L14.2057529,10.7843475 C14.0879098,10.8992161 14.0341356,11.0647162 14.0619546,11.2269132 L14.7414372,15.1886009 C14.8347982,15.7329373 14.4692104,16.2498932 13.9248739,16.3432542 C13.7081163,16.3804311 13.4851482,16.3451164 13.2904877,16.2427773 L9.73267056,14.3723222 C9.58700855,14.2957431 9.41299145,14.2957431 9.26732944,14.3723222 Z" id="星形备份"></path>
        </g>
    </g>
</svg>