<?xml version="1.0" encoding="UTF-8"?>
<svg width="24px" height="24px" viewBox="0 0 24 24" version="1.1" xmlns="http://www.w3.org/2000/svg" xmlns:xlink="http://www.w3.org/1999/xlink">
    <title>icon-项目管理-文档导入</title>
    <g id="icon-项目管理-文档导入" stroke="none" stroke-width="1" fill="none" fill-rule="evenodd">
        <rect id="矩形" x="0" y="0" width="24" height="24"></rect>
        <g id="编组">
            <path d="M2,0 L11.875,0 L11.875,0 L19,7.20544062 L19,22 C19,23.1045695 18.1045695,24 17,24 L2,24 C0.8954305,24 1.3527075e-16,23.1045695 0,22 L0,2 C-1.3527075e-16,0.8954305 0.8954305,-6.85272294e-16 2,0 Z" id="矩形" fill="#A040FF"></path>
            <path d="M12,0 L19,7 L13,7 C12.4477153,7 12,6.55228475 12,6 L12,0 L12,0 Z" id="矩形" fill="#EEEEEE"></path>
        </g>
        <g id="编组-10" transform="translate(4.183088, 10.500000)">
            <g id="编组-2" transform="translate(0.289614, 0.115966)">
                <path d="M4.56187102,0.738605815 C4.6278045,1.11253315 4.40442713,1.4705566 4.05253687,1.58303289 L3.95350134,1.60744776 L3.03856118,1.76847352 C4.36684094,2.31105876 5.45737433,3.00475704 6.3063214,3.85370411 C7.52076957,5.06815228 8.35930747,6.71862416 8.82972344,8.78892187 C8.9215022,9.1928396 8.66846356,9.594681 8.26454583,9.68645976 C7.8606281,9.77823852 7.4587867,9.52519988 7.36700794,9.12128215 C6.95584099,7.31173902 6.24612931,5.91483236 5.24566123,4.91436428 C4.43403283,4.10273588 3.32238502,3.44306974 1.90491213,2.94161873 L2.1283923,4.21397361 C2.20031973,4.62189433 1.92794334,5.01088812 1.52002261,5.08281555 C1.14609528,5.14874903 0.788071832,4.92537167 0.675595539,4.5734814 L0.651180666,4.47444587 L0.130236133,1.52002261 C0.058308703,1.11210189 0.330685087,0.723108097 0.738605815,0.651180666 L3.69302907,0.130236133 C4.1009498,0.058308703 4.48994359,0.330685087 4.56187102,0.738605815 Z" id="形状结合" fill="#FFFFFF" fill-rule="nonzero"></path>
                <g id="编组-11" transform="translate(2.606526, 2.606526) rotate(-10.000000) translate(-2.606526, -2.606526) translate(0.356526, 0.356526)"></g>
            </g>
        </g>
    </g>
</svg>