<?xml version='1.0' encoding='UTF-8'?>
<svg width="110" height="34" xmlns="http://www.w3.org/2000/svg" xmlns:xlink= "http://www.w3.org/1999/xlink" viewBox="0 0 112 33" fill="ff0000"><g clip-path="url(#logo_color_01_svg__clip0_801:12280)"><path d="M19.875 13.552l-3.229 14.003a.35.35 0 00.344.43h6.45a.35.35 0 00.344-.43l-3.229-14.003c-.078-.368-.602-.368-.68 0zM2.01 18.86L.008 27.554a.354.354 0 00.344.43h4.003c.227 0 .391-.21.344-.43L2.698 18.86c-.079-.36-.602-.36-.688 0z" fill="#ff0000" style="opacity: 0.8867; animation-duration: 0.0566s;"></path><path d="M6.411 8.243l-4.449 19.32a.35.35 0 00.344.43h8.89a.35.35 0 00.344-.43L7.091 8.242c-.078-.368-.594-.368-.68 0z" fill="#ff0000" style="opacity: 0.9615; animation-duration: 0.0193s;"></path><path d="M13.878.276L7.592 27.562a.35.35 0 00.344.43h12.565a.35.35 0 00.344-.43L14.559.276c-.079-.368-.595-.368-.68 0z" fill="#ff0000"></path><path d="M9.719 10.893l-3.84 16.67a.35.35 0 00.345.43h7.67a.35.35 0 00.344-.43l-3.839-16.67c-.078-.367-.594-.367-.68 0z" fill="#ff0000"></path><path d="M58.198 27.455h-1.804a.193.193 0 01-.196-.196V10.766c0-.11.085-.195.196-.195h1.804c.11 0 .196.085.196.195V27.26c.008.102-.085.196-.196.196zM82.3 28h-1.898a.198.198 0 01-.196-.196V10.758c0-.11.094-.196.196-.196H82.3c.11 0 .195.094.195.196v17.046c.009.102-.085.196-.195.196zM51.799 27.881h-1.804a.198.198 0 01-.196-.196V12.75c0-.11.093-.196.196-.196h1.804c.11 0 .196.094.196.196v14.927a.195.195 0 01-.196.204zM64.606 27.881h-1.804a.198.198 0 01-.196-.196V12.75c0-.11.094-.196.196-.196h1.804c.111 0 .196.094.196.196v14.927a.195.195 0 01-.196.204z" fill="#ff0000"></path><path d="M49.892 27.506v-1.83H64.7v1.83a.363.363 0 01-.366.366H50.258a.358.358 0 01-.366-.366zM86.154 12.468v-1.43c0-.05.042-.101.102-.101h8.604c.05 0 .102.042.102.102v1.43a.104.104 0 01-.102.101h-8.604c-.06-.008-.102-.05-.102-.102zM96.954 12.902v-1.344c0-.11.093-.204.204-.204h5.489c.051 0 .102.042.102.102v1.557a.103.103 0 01-.102.102h-5.49a.22.22 0 01-.203-.213zM43.067 12.945c-.034.868-.153 2.851-.562 5.974-.017.12.077.23.205.23h2.076a.21.21 0 00.204-.178c.4-3.15.52-5.132.545-6.009a.209.209 0 00-.204-.213h-2.068c-.102.009-.196.094-.196.196zM33.093 12.954c.034.868.153 2.876.562 6.017a.203.203 0 01-.204.23h-2.094a.21.21 0 01-.204-.18c-.409-3.174-.52-5.174-.553-6.059 0-.119.085-.213.204-.213h2.085a.22.22 0 01.204.205zM85.958 14.026c-.05 0-.093.05-.093.102v1.65c0 .06.05.111.11.103 1.49-.136 2.588-1.209 2.732-2.825.009-.06-.042-.111-.102-.111h-1.668c-.051 0-.094.042-.102.093-.102.868-.587.97-.877.988zM97.805 14.162h-1.72c-.06 0-.11.06-.102.12.562 3.14 3.268 5.131 6.996 5.122a.104.104 0 00.102-.102v-1.685a.099.099 0 00-.102-.102c-2.145 0-4.494-.86-5.08-3.276a.1.1 0 00-.094-.077z" fill="#ff0000"></path><path d="M89.448 12.758h-1.915a.103.103 0 01-.102-.102v-2c0-.051.043-.102.102-.102h1.915c.051 0 .102.042.102.102v2c-.008.05-.05.102-.102.102zM93.576 12.758H91.66a.104.104 0 01-.102-.102v-2c0-.051.042-.102.102-.102h1.915c.05 0 .102.042.102.102v2a.11.11 0 01-.102.102zM102 12.809v-.145h-1.931v.204c.017.655.059 2.179-.98 3.26-.79.817-2.084 1.25-3.846 1.293a.103.103 0 00-.102.102l.017 1.728c0 .06.051.102.11.102 2.307-.043 4.06-.68 5.218-1.88 1.591-1.677 1.531-3.847 1.514-4.664zM98.469 10.536h-1.72c-.05 0-.093.043-.101.094-.043.834-.639 1.498-1.43 1.6a.1.1 0 00-.085.093v1.728c0 .06.05.102.102.102 1.855-.119 3.276-1.617 3.328-3.514.008-.06-.043-.103-.094-.103zM68.283 11.15v1.804c0 .11.093.204.204.204h6.204c.051 0 .102.043.102.102v2.026a.104.104 0 01-.102.102h-6.204a.207.207 0 00-.204.204v6.05c0 .111.093.205.204.205h6.204c.051 0 .102.043.102.102v3.379c0 .11-.085.195-.196.195h-4.561a.2.2 0 00-.196.154l-.442 1.931c-.017.06.034.12.093.12h6.91a.592.592 0 00.596-.596v-7.285a.193.193 0 00-.195-.196h-6.205a.103.103 0 01-.102-.102v-1.847c0-.05.043-.102.102-.102h6.205c.11 0 .204-.093.204-.204v-6.23a.207.207 0 00-.204-.204h-8.306c-.128-.008-.213.077-.213.188zM94.417 13.447h-6.876a.103.103 0 00-.102.103v1.208c0 .051.043.102.102.102h5.106c.051 0 .102.043.102.102v2.715a.103.103 0 01-.102.102h-.596a.1.1 0 00-.093.077l-.332 1.438c-.017.06.034.12.094.12h2.076a.808.808 0 00.809-.81v-4.952a.184.184 0 00-.188-.204zM93.338 20.553v5.71c0 .111-.085.197-.196.197h-1.387a.2.2 0 00-.196.153l-.34 1.26a.102.102 0 00.102.127h3.583a.8.8 0 00.8-.8v-6.655h-2.366v.008z" fill="#ff0000"></path><path d="M86.623 15.532v2.809c0 .11.085.195.195.195h4.46c.11 0 .195-.085.195-.195v-2.809a.193.193 0 00-.195-.195h-4.46a.204.204 0 00-.195.195zm3.19 1.881h-1.522a.104.104 0 01-.103-.102v-.749c0-.05.043-.102.103-.102h1.523c.051 0 .102.043.102.102v.75c0 .059-.042.101-.102.101zM86.614 21.175v-1.251c0-.051.043-.102.102-.102h15.608c.051 0 .102.042.102.102v1.25a.103.103 0 01-.102.103H86.716c-.06-.009-.102-.051-.102-.102zM86.86 23.328v-1.251c0-.051.043-.102.103-.102h15.114c.051 0 .102.042.102.102v1.25a.103.103 0 01-.102.103H86.963a.098.098 0 01-.102-.102zM86.035 25.464v-1.251c0-.051.043-.102.102-.102h16.757c.051 0 .102.042.102.102v1.25a.103.103 0 01-.102.103H86.137a.103.103 0 01-.102-.102zM36.957 17.081c.094 5.047-4.298 8.426-6.902 8.596-.11.008-.196.093-.196.195v1.839c0 .11.094.204.205.196 1.949-.12 4.153-1.166 5.82-2.783 1.507-1.456 3.294-4.034 3.294-8.043V10.41a.193.193 0 00-.196-.195h-1.838a.193.193 0 00-.196.195v6.672h.009z" fill="#ff0000"></path><path d="M39.187 17.081c-.094 5.047 4.298 8.425 6.902 8.596.11.008.196.093.196.195v1.838c0 .111-.094.205-.205.196-1.948-.119-4.153-1.166-5.82-2.783-1.507-1.455-3.294-4.034-3.294-8.042V10.41c0-.11.085-.196.196-.196H39c.11 0 .196.086.196.196v6.672h-.009z" fill="#ff0000" style="opacity: 0.9983; animation-duration: 0.0008s;"></path></g><defs><clipPath id="logo_color_01_svg__clip0_801:12280"><path fill="#ff0000" transform="translate(0 .057)" d="M0 0h112v32H0z"></path></clipPath></defs></svg>